<?xml version="1.0" encoding="UTF-8"?>
<svg width="188px" height="188px" viewBox="0 0 188 188" version="1.1" xmlns="http://www.w3.org/2000/svg" xmlns:xlink="http://www.w3.org/1999/xlink">
    <title>Group</title>
    <g id="Page-1" stroke="none" stroke-width="1" fill="none" fill-rule="evenodd">
        <g id="Group">
            <rect id="Rectangle" x="0" y="0" width="188" height="188"></rect>
            <g id="pants-logo" transform="translate(45.000000, 12.000000)" fill="#55ACEE" fill-rule="nonzero">
                <path d="M0.77,5.78 C1.29,3.22 2.94,0.56 5.88,0.64 C17.59,0.46 29.31,0.64 41.03,0.56 C41.02,2.33 41.01,4.1 41,5.87 C27.59,5.72 14.18,5.89 0.77,5.78 Z" id="path3340"></path>
                <path d="M46.14,0.57 C54.42,0.65 62.7,0.43 70.97,0.66 C73.8,0.67 75.07,3.58 75.99,5.78 C65.98,5.85 55.98,5.79 45.97,5.82 C46.03,4.07 46.09,2.32 46.14,0.57 Z" id="path3342"></path>
                <path d="M1.23,11.34 C6.88,11.33 12.53,11.36 18.18,11.31 C16.45,19.96 9.29,26.16 2.07,30.5 C1.74,24.12 1.47,17.73 1.23,11.34 L1.23,11.34 Z" id="path3344"></path>
                <path d="M23.27,11.32 C29.13,11.36 34.99,11.34 40.85,11.33 C39.1,60.57 37.69,109.83 35.93,159.07 C35.77,161.48 33.48,163.4 31.09,163.37 C24.73,163.5 18.36,163.42 12,163.41 C8.96,163.73 6.33,160.99 6.48,158.01 C4.92,117.44 3.79,76.86 2.01,36.31 C11.82,31.13 21.47,22.86 23.27,11.32 Z" id="path3346"></path>
                <path d="M45.97,11.32 C53.25,11.34 60.53,11.38 67.82,11.29 C70.85,19.76 76.99,26.89 84.86,31.24 C88.65,42.05 92.55,52.82 96.3,63.64 C97.91,67.89 96.81,73.2 92.87,75.78 C76.07,88.55 59.31,101.39 42.44,114.1 C43.19,102.45 42.92,90.76 43.75,79.12 C48.77,73.24 55.29,68.64 60.71,63.06 C55.51,55.71 50.28,48.37 45.01,41.07 C44.94,31.15 45.61,21.23 45.97,11.32 L45.97,11.32 Z" id="path3348"></path>
                <path d="M73.31,11.37 C74.79,11.34 76.27,11.31 77.75,11.29 C79.26,15.3 80.64,19.35 82.04,23.4 C78.31,20.07 75.28,15.98 73.31,11.37 L73.31,11.37 Z" id="path3350"></path>
            </g>
        </g>
    </g>
</svg>